# xmcd CD database file
#
# Track frame offsets:
#	150
#	15370
#	29299
#	44506
#
# Disc length: 779 seconds
#
# Revision: 3
# Processed by: cddbd v1.5.2PL0 Copyright (c) Steve Scherf et al.
# Submitted via: CDex 1.70beta3
#
DISCID=25030904
DTITLE=Perfume - 未来のミュージアム
DYEAR=2013
DGENRE=JPop
TTITLE0=未来のミュージアム
TTITLE1=だいじょばない
TTITLE2=未来のミュージアム -Original Instrumental-
TTITLE3=だいじょばない -Original Instrumental-
EXTD=UPCP-9003 YEAR: 2013
EXTT0=
EXTT1=
EXTT2=
EXTT3=
PLAYORDER=
